<svg width="284" height="230" viewBox="0 0 284 230" fill="none" xmlns="http://www.w3.org/2000/svg">
<g filter="url(#filter0_d_403_170)">
<path d="M140.603 59.425L140.603 58.7144C140.603 58.0695 141.096 57.5468 141.705 57.5468C142.314 57.5468 142.807 58.0695 142.807 58.7144L142.807 59.425C142.807 60.0699 142.314 60.5926 141.705 60.5926C141.096 60.5926 140.603 60.0698 140.603 59.425ZM129.942 63.0755C130.146 63.4503 130.517 63.6598 130.898 63.6598C131.085 63.6598 131.274 63.6094 131.448 63.5034C131.975 63.1811 132.156 62.4671 131.852 61.9086L131.516 61.2932C131.212 60.7346 130.538 60.5431 130.011 60.8652C129.483 61.1875 129.302 61.9015 129.607 62.46L129.942 63.0755ZM151.962 63.5034C152.136 63.6095 152.325 63.66 152.512 63.66C152.893 63.66 153.264 63.4505 153.468 63.0759L153.803 62.4605C154.108 61.902 153.927 61.188 153.4 60.8656C152.873 60.5434 152.198 60.7347 151.894 61.2931L151.558 61.9085C151.254 62.4669 151.435 63.1809 151.962 63.5034ZM160.426 72.0399C160.613 72.0399 160.803 71.9894 160.977 71.8831L161.558 71.5278C162.085 71.2053 162.265 70.4912 161.961 69.9328C161.657 69.3745 160.982 69.1831 160.455 69.5058L159.874 69.8611C159.347 70.1836 159.166 70.8976 159.471 71.4561C159.675 71.8305 160.045 72.0399 160.426 72.0399ZM163.292 92.7463C161.86 95.7511 157.86 97.7699 153.338 97.7699C150.238 97.7699 147.334 96.8229 145.359 95.2014C144.228 96.0224 143.034 96.5509 141.852 96.7124C141.798 96.7198 141.744 96.7225 141.691 96.722C141.647 96.7216 141.603 96.7185 141.559 96.7124C140.376 96.5507 139.182 96.0222 138.051 95.2014C136.076 96.823 133.173 97.7699 130.072 97.7699C125.55 97.7699 121.55 95.7511 120.118 92.7463C119.961 92.4157 119.961 92.0253 120.118 91.6945C121.174 89.4769 123.59 87.7954 126.646 87.0666C125.06 84.6809 124.481 81.8619 125.199 79.4504C125.287 79.1553 125.482 78.9092 125.741 78.7662C127.553 77.7668 129.85 77.6944 132.086 78.5244C132.418 77.3597 132.94 76.3462 133.648 75.5561C133.89 75.2859 134.24 75.1544 134.589 75.202C135.167 75.281 135.748 75.4477 136.323 75.6933C137.489 73.0825 139.208 71.1355 141.245 70.1457C141.537 70.0038 141.873 70.0038 142.164 70.1457C144.2 71.135 145.919 73.0807 147.086 75.6897C147.661 75.4463 148.242 75.2812 148.821 75.202C149.17 75.1544 149.52 75.2859 149.762 75.5561C150.47 76.3462 150.992 77.3596 151.324 78.5242C153.56 77.6943 155.857 77.7669 157.668 78.7661C157.928 78.9091 158.123 79.1552 158.21 79.4502C158.929 81.8618 158.35 84.6807 156.764 87.0663C159.82 87.7952 162.236 89.4767 163.292 91.6943C163.449 92.0253 163.449 92.4157 163.292 92.7463ZM149.944 89.4344C151.141 89.1194 152.33 88.4706 153.378 87.5399C155.518 85.6386 156.638 82.8703 156.223 80.633C154.928 80.1004 153.313 80.183 151.722 80.8594C151.874 83.0393 151.503 85.5052 150.586 87.9321C150.391 88.4481 150.176 88.9497 149.944 89.4344ZM138.256 76.8308C139.526 77.7884 140.71 79.1137 141.703 80.6991C142.7 79.0967 143.883 77.7734 145.15 76.8215C144.301 74.8786 143.086 73.3589 141.705 72.5192C140.322 73.3604 139.105 74.8835 138.256 76.8308ZM130.032 87.5397C131.079 88.4706 132.269 89.1197 133.466 89.4345C133.234 88.9496 133.019 88.4482 132.824 87.9319C131.907 85.5052 131.536 83.0392 131.689 80.8594C130.097 80.1827 128.482 80.1001 127.187 80.6328C126.772 82.8702 127.892 85.6384 130.032 87.5397ZM136.309 93.6531C135.834 93.1473 135.381 92.5889 134.956 91.9855C132.771 91.9459 130.492 90.9976 128.614 89.3285C128.535 89.2584 128.458 89.1875 128.381 89.1155C125.696 89.4679 123.446 90.64 122.387 92.2202C123.674 94.1377 126.718 95.4349 130.072 95.4349C132.453 95.4349 134.731 94.7698 136.309 93.6531ZM141.277 84.8501C140.178 81.9421 138.341 79.544 136.41 78.3336C136.357 78.3066 136.306 78.2754 136.258 78.2406C135.801 77.9696 135.34 77.766 134.883 77.6384C134.426 78.3305 134.12 79.2159 133.968 80.2245C133.964 80.286 133.955 80.3475 133.942 80.4085C133.687 82.3565 133.991 84.7359 134.871 87.0647C135.758 89.4147 137.128 91.4317 138.64 92.758C138.676 92.785 138.71 92.8145 138.742 92.8464C139.562 93.5453 140.42 94.0408 141.264 94.2765C142.619 92.2248 142.646 88.4758 141.277 84.8501ZM148.539 87.0644C149.419 84.7367 149.722 82.3579 149.468 80.4103C149.455 80.3478 149.446 80.2847 149.442 80.2218C149.29 79.2142 148.984 78.3296 148.527 77.638C148.077 77.7633 147.622 77.9622 147.171 78.2268C147.111 78.2724 147.046 78.3121 146.976 78.3449C145.477 79.2889 144.03 80.951 142.94 83.044C143.075 83.3509 143.203 83.664 143.323 83.9827C144.574 87.2916 144.809 90.673 144.085 93.3034C144.282 93.162 144.478 93.0083 144.671 92.8435C144.701 92.8138 144.733 92.7863 144.766 92.761C146.279 91.4345 147.651 89.4162 148.539 87.0644ZM161.023 92.2202C159.964 90.64 157.714 89.468 155.028 89.1155C154.952 89.1874 154.874 89.2585 154.795 89.3285C152.917 90.9974 150.638 91.9457 148.454 91.9854C148.029 92.5889 147.576 93.1472 147.101 93.6531C148.679 94.7696 150.957 95.4348 153.338 95.4348C156.692 95.435 159.736 94.1377 161.023 92.2202ZM152.392 100.856C151.933 100.432 151.236 100.483 150.836 100.969C150.141 101.814 146.848 103.005 141.705 103.005C136.561 103.005 133.269 101.814 132.574 100.969C132.174 100.483 131.477 100.432 131.018 100.856C130.559 101.279 130.511 102.017 130.911 102.503C132.633 104.597 137.802 105.34 141.705 105.34C145.608 105.34 150.777 104.597 152.499 102.503C152.899 102.017 152.851 101.279 152.392 100.856ZM127.213 76.1514C127.799 76.3262 128.408 75.9649 128.573 75.3443C130.221 69.1495 135.621 64.823 141.705 64.823C147.789 64.823 153.189 69.1495 154.837 75.3443C154.974 75.8592 155.416 76.1956 155.897 76.1956C155.996 76.1956 156.097 76.1813 156.197 76.1514C156.783 75.9766 157.124 75.3317 156.959 74.7111C155.044 67.5142 148.772 62.4879 141.705 62.4879C134.638 62.4879 128.365 67.5143 126.451 74.7111C126.286 75.3317 126.627 75.9766 127.213 76.1514ZM141.705 101.416C142.652 101.416 145.83 101.309 146.961 99.9327C147.361 99.4464 147.313 98.7089 146.854 98.2855C146.397 97.8642 145.705 97.9126 145.305 98.392C145.053 98.6339 143.748 99.0808 141.705 99.0808C139.661 99.0808 138.356 98.6338 138.105 98.3917C137.704 97.9126 137.013 97.8642 136.556 98.2856C136.097 98.7091 136.049 99.4466 136.449 99.9329C137.58 101.309 140.758 101.416 141.705 101.416ZM121.852 71.5276L122.433 71.883C122.607 71.9893 122.796 72.0399 122.984 72.0399C123.364 72.0399 123.735 71.8306 123.939 71.4562C124.244 70.8979 124.063 70.1837 123.536 69.8612L122.955 69.5058C122.429 69.1834 121.754 69.3741 121.449 69.9326C121.145 70.4908 121.325 71.2049 121.852 71.5276Z" fill="#FF0000"/>
</g>
<defs>
<filter id="filter0_d_403_170" x="0" y="-58.4532" width="283.41" height="287.793" filterUnits="userSpaceOnUse" color-interpolation-filters="sRGB">
<feFlood flood-opacity="0" result="BackgroundImageFix"/>
<feColorMatrix in="SourceAlpha" type="matrix" values="0 0 0 0 0 0 0 0 0 0 0 0 0 0 0 0 0 0 127 0" result="hardAlpha"/>
<feOffset dy="4"/>
<feGaussianBlur stdDeviation="60"/>
<feColorMatrix type="matrix" values="0 0 0 0 1 0 0 0 0 1 0 0 0 0 1 0 0 0 1 0"/>
<feBlend mode="normal" in2="BackgroundImageFix" result="effect1_dropShadow_403_170"/>
<feBlend mode="normal" in="SourceGraphic" in2="effect1_dropShadow_403_170" result="shape"/>
</filter>
</defs>
</svg>
