<svg width="18" height="24" viewBox="0 0 18 24" fill="none" xmlns="http://www.w3.org/2000/svg">
<g opacity="0.5">
<path d="M8.96047 11.9424C11.4143 11.9424 13.4035 9.71672 13.4035 6.9712C13.4035 4.22568 11.4143 2 8.96047 2C6.50666 2 4.51746 4.22568 4.51746 6.9712C4.51746 9.71672 6.50666 11.9424 8.96047 11.9424Z" stroke="#C4C4C4" stroke-width="3" stroke-linecap="round" stroke-linejoin="round"/>
<path fill-rule="evenodd" clip-rule="evenodd" d="M1.91304 18.8564C1.91186 18.5069 1.98171 18.1617 2.11733 17.8469C2.54291 16.8946 3.74305 16.3898 4.7389 16.1613C5.45711 15.9898 6.18524 15.8752 6.91787 15.8184C8.27427 15.6851 9.63851 15.6851 10.9949 15.8184C11.7275 15.8759 12.4556 15.9904 13.1739 16.1613C14.1697 16.3898 15.3699 16.847 15.7955 17.8469C16.0682 18.4887 16.0682 19.2337 15.7955 19.8754C15.3699 20.8754 14.1697 21.3325 13.1739 21.5515C12.4565 21.7301 11.7281 21.8479 10.9949 21.9039C9.89092 22.0086 8.78176 22.0277 7.6754 21.961C7.42005 21.961 7.17322 21.961 6.91787 21.9039C6.18741 21.8486 5.4618 21.7308 4.74741 21.5515C3.74305 21.3325 2.55142 20.8754 2.11733 19.8754C1.98241 19.5569 1.91262 19.2088 1.91304 18.8564Z" stroke="#C4C4C4" stroke-width="3" stroke-linecap="round" stroke-linejoin="round"/>
</g>
</svg>
